{
    "asset" : {
        "generator" : "Khronos glTF Blender I/O v1.7.33",
        "version" : "2.0"
    },
    "scene" : 0,
    "scenes" : [
        {
            "name" : "Scene",
            "nodes" : [
                0,
                1,
                2,
                3,
                4
            ]
        }
    ],
    "nodes" : [
        {
            "mesh" : 0,
            "name" : "CornerTubeClosed",
            "scale" : [
                0.5,
                1,
                0.5
            ]
        },
        {
            "mesh" : 1,
            "name" : "CornerTube",
            "scale" : [
                0.5,
                1,
                0.5
            ]
        },
        {
            "mesh" : 2,
            "name" : "Tube",
            "scale" : [
                0.5,
                1,
                0.5
            ]
        },
        {
            "mesh" : 3,
            "name" : "Reference"
        },
        {
            "mesh" : 4,
            "name" : "TubeClosed",
            "scale" : [
                0.5,
                1,
                0.5
            ]
        }
    ],
    "meshes" : [
        {
            "name" : "Cube.006",
            "primitives" : [
                {
                    "attributes" : {
                        "POSITION" : 0,
                        "NORMAL" : 1,
                        "TEXCOORD_0" : 2
                    },
                    "indices" : 3
                }
            ]
        },
        {
            "name" : "Cube.008",
            "primitives" : [
                {
                    "attributes" : {
                        "POSITION" : 4,
                        "NORMAL" : 5,
                        "TEXCOORD_0" : 6
                    },
                    "indices" : 7
                }
            ]
        },
        {
            "name" : "Cube.009",
            "primitives" : [
                {
                    "attributes" : {
                        "POSITION" : 8,
                        "NORMAL" : 9,
                        "TEXCOORD_0" : 10
                    },
                    "indices" : 11
                }
            ]
        },
        {
            "name" : "Cube.010",
            "primitives" : [
                {
                    "attributes" : {
                        "POSITION" : 12,
                        "NORMAL" : 13,
                        "TEXCOORD_0" : 14
                    },
                    "indices" : 15
                }
            ]
        },
        {
            "name" : "Cube.011",
            "primitives" : [
                {
                    "attributes" : {
                        "POSITION" : 16,
                        "NORMAL" : 17,
                        "TEXCOORD_0" : 18
                    },
                    "indices" : 19
                }
            ]
        }
    ],
    "accessors" : [
        {
            "bufferView" : 0,
            "componentType" : 5126,
            "count" : 40,
            "max" : [
                2,
                1,
                1
            ],
            "min" : [
                -1,
                -0.5,
                -1
            ],
            "type" : "VEC3"
        },
        {
            "bufferView" : 1,
            "componentType" : 5126,
            "count" : 40,
            "type" : "VEC3"
        },
        {
            "bufferView" : 2,
            "componentType" : 5126,
            "count" : 40,
            "type" : "VEC2"
        },
        {
            "bufferView" : 3,
            "componentType" : 5123,
            "count" : 78,
            "type" : "SCALAR"
        },
        {
            "bufferView" : 4,
            "componentType" : 5126,
            "count" : 36,
            "max" : [
                2,
                1,
                1
            ],
            "min" : [
                -1,
                -0.4999999403953552,
                -1
            ],
            "type" : "VEC3"
        },
        {
            "bufferView" : 5,
            "componentType" : 5126,
            "count" : 36,
            "type" : "VEC3"
        },
        {
            "bufferView" : 6,
            "componentType" : 5126,
            "count" : 36,
            "type" : "VEC2"
        },
        {
            "bufferView" : 7,
            "componentType" : 5123,
            "count" : 72,
            "type" : "SCALAR"
        },
        {
            "bufferView" : 8,
            "componentType" : 5126,
            "count" : 16,
            "max" : [
                1,
                1,
                1
            ],
            "min" : [
                -1,
                -1,
                -1
            ],
            "type" : "VEC3"
        },
        {
            "bufferView" : 9,
            "componentType" : 5126,
            "count" : 16,
            "type" : "VEC3"
        },
        {
            "bufferView" : 10,
            "componentType" : 5126,
            "count" : 16,
            "type" : "VEC2"
        },
        {
            "bufferView" : 11,
            "componentType" : 5123,
            "count" : 24,
            "type" : "SCALAR"
        },
        {
            "bufferView" : 12,
            "componentType" : 5126,
            "count" : 24,
            "max" : [
                1,
                1,
                1
            ],
            "min" : [
                -1,
                -1,
                -1
            ],
            "type" : "VEC3"
        },
        {
            "bufferView" : 13,
            "componentType" : 5126,
            "count" : 24,
            "type" : "VEC3"
        },
        {
            "bufferView" : 14,
            "componentType" : 5126,
            "count" : 24,
            "type" : "VEC2"
        },
        {
            "bufferView" : 15,
            "componentType" : 5123,
            "count" : 36,
            "type" : "SCALAR"
        },
        {
            "bufferView" : 16,
            "componentType" : 5126,
            "count" : 20,
            "max" : [
                1,
                1,
                1
            ],
            "min" : [
                -1,
                -0.6000000238418579,
                -1
            ],
            "type" : "VEC3"
        },
        {
            "bufferView" : 17,
            "componentType" : 5126,
            "count" : 20,
            "type" : "VEC3"
        },
        {
            "bufferView" : 18,
            "componentType" : 5126,
            "count" : 20,
            "type" : "VEC2"
        },
        {
            "bufferView" : 19,
            "componentType" : 5123,
            "count" : 30,
            "type" : "SCALAR"
        }
    ],
    "bufferViews" : [
        {
            "buffer" : 0,
            "byteLength" : 480,
            "byteOffset" : 0
        },
        {
            "buffer" : 0,
            "byteLength" : 480,
            "byteOffset" : 480
        },
        {
            "buffer" : 0,
            "byteLength" : 320,
            "byteOffset" : 960
        },
        {
            "buffer" : 0,
            "byteLength" : 156,
            "byteOffset" : 1280
        },
        {
            "buffer" : 0,
            "byteLength" : 432,
            "byteOffset" : 1436
        },
        {
            "buffer" : 0,
            "byteLength" : 432,
            "byteOffset" : 1868
        },
        {
            "buffer" : 0,
            "byteLength" : 288,
            "byteOffset" : 2300
        },
        {
            "buffer" : 0,
            "byteLength" : 144,
            "byteOffset" : 2588
        },
        {
            "buffer" : 0,
            "byteLength" : 192,
            "byteOffset" : 2732
        },
        {
            "buffer" : 0,
            "byteLength" : 192,
            "byteOffset" : 2924
        },
        {
            "buffer" : 0,
            "byteLength" : 128,
            "byteOffset" : 3116
        },
        {
            "buffer" : 0,
            "byteLength" : 48,
            "byteOffset" : 3244
        },
        {
            "buffer" : 0,
            "byteLength" : 288,
            "byteOffset" : 3292
        },
        {
            "buffer" : 0,
            "byteLength" : 288,
            "byteOffset" : 3580
        },
        {
            "buffer" : 0,
            "byteLength" : 192,
            "byteOffset" : 3868
        },
        {
            "buffer" : 0,
            "byteLength" : 72,
            "byteOffset" : 4060
        },
        {
            "buffer" : 0,
            "byteLength" : 240,
            "byteOffset" : 4132
        },
        {
            "buffer" : 0,
            "byteLength" : 240,
            "byteOffset" : 4372
        },
        {
            "buffer" : 0,
            "byteLength" : 160,
            "byteOffset" : 4612
        },
        {
            "buffer" : 0,
            "byteLength" : 60,
            "byteOffset" : 4772
        }
    ],
    "buffers" : [
        {
            "byteLength" : 4832,
            "uri" : "data:application/octet-stream;base64,"
        }
    ]
}
